<svg width="32" height="32" viewBox="0 0 32 32" fill="none" xmlns="http://www.w3.org/2000/svg">
<path fill-rule="evenodd" clip-rule="evenodd" d="M11.9987 4.66699C9.56403 4.66699 7.7227 5.07766 5.70537 6.06833C5.5897 6.12495 5.49291 6.21387 5.4267 6.32433C4.04137 8.63366 1.33203 15.0617 1.33203 22.667C1.33168 22.84 1.39862 23.0064 1.5187 23.131C2.78803 24.439 3.94137 25.4017 5.1787 26.0817C6.4227 26.7643 7.7187 27.1443 9.25203 27.3283C9.37988 27.3439 9.50949 27.322 9.62519 27.2655C9.7409 27.2089 9.83775 27.1201 9.90403 27.0097L10.584 25.8737C9.59337 25.527 8.58137 25.067 7.95737 24.443C7.8619 24.3507 7.78577 24.2403 7.73342 24.1183C7.68107 23.9963 7.65355 23.865 7.65246 23.7323C7.65136 23.5995 7.67673 23.4678 7.72707 23.3449C7.77741 23.2221 7.85171 23.1104 7.94565 23.0166C8.03959 22.9227 8.15127 22.8485 8.27419 22.7983C8.39711 22.7481 8.5288 22.7229 8.66158 22.7241C8.79436 22.7253 8.92556 22.7529 9.04754 22.8054C9.16952 22.8579 9.27983 22.9341 9.37203 23.0297C9.71203 23.3697 10.5107 23.7563 11.6387 24.1177C12.5707 24.3617 14.1934 24.667 15.9987 24.667C17.804 24.667 19.4267 24.3617 20.3587 24.1177C21.4867 23.7563 22.2854 23.3683 22.6254 23.0297C22.7169 22.9314 22.8273 22.8526 22.95 22.7979C23.0726 22.7433 23.2051 22.7139 23.3393 22.7115C23.4736 22.7092 23.607 22.7339 23.7315 22.7842C23.856 22.8345 23.9691 22.9093 24.0641 23.0043C24.159 23.0992 24.2339 23.2123 24.2842 23.3369C24.3345 23.4614 24.3592 23.5947 24.3568 23.729C24.3545 23.8633 24.3251 23.9957 24.2704 24.1184C24.2158 24.241 24.137 24.3514 24.0387 24.443C23.416 25.067 22.404 25.527 21.412 25.8737L22.0934 27.0097C22.1595 27.1203 22.2562 27.2094 22.372 27.2662C22.4877 27.323 22.6174 27.3451 22.7454 27.3297C24.2787 27.1443 25.5747 26.7643 26.8187 26.0817C28.056 25.4017 29.2094 24.439 30.4774 23.131C30.5979 23.0066 30.6654 22.8402 30.6654 22.667C30.6654 15.0617 27.956 8.63366 26.5707 6.32433C26.5045 6.21387 26.4077 6.12495 26.292 6.06833C24.2747 5.07766 22.4334 4.66699 19.9987 4.66699C19.8588 4.6671 19.7226 4.71119 19.6091 4.79303C19.4957 4.87486 19.4109 4.9903 19.3667 5.12299L18.9187 6.46699C17.9753 6.16156 16.9903 6.00414 15.9987 6.00033C15.0071 6.00414 14.0221 6.16156 13.0787 6.46699L12.6307 5.12299C12.5865 4.9903 12.5017 4.87486 12.3883 4.79303C12.2748 4.71119 12.1386 4.6671 11.9987 4.66699ZM13.332 17.0003C13.332 18.2883 12.436 19.3337 11.332 19.3337C10.228 19.3337 9.33203 18.2883 9.33203 17.0003C9.33203 15.7123 10.228 14.667 11.332 14.667C12.436 14.667 13.332 15.7123 13.332 17.0003ZM20.6654 19.3337C21.7694 19.3337 22.6654 18.2883 22.6654 17.0003C22.6654 15.7123 21.7694 14.667 20.6654 14.667C19.5614 14.667 18.6654 15.7123 18.6654 17.0003C18.6654 18.2883 19.5614 19.3337 20.6654 19.3337Z" fill="#68A4A9"/>
</svg>
