<svg width="17" height="17" viewBox="0 0 17 17" fill="none" xmlns="http://www.w3.org/2000/svg">
<path d="M11.3346 14.875V13.4583C11.3346 12.7069 11.0361 11.9862 10.5048 11.4549C9.97342 10.9235 9.25275 10.625 8.5013 10.625H4.2513C3.49986 10.625 2.77919 10.9235 2.24783 11.4549C1.71648 11.9862 1.41797 12.7069 1.41797 13.4583V14.875" stroke="#259BA5" stroke-width="1.41667" stroke-linecap="round" stroke-linejoin="round"/>
<path d="M6.3763 7.79167C7.94111 7.79167 9.20964 6.52314 9.20964 4.95833C9.20964 3.39353 7.94111 2.125 6.3763 2.125C4.8115 2.125 3.54297 3.39353 3.54297 4.95833C3.54297 6.52314 4.8115 7.79167 6.3763 7.79167Z" stroke="#259BA5" stroke-width="1.41667" stroke-linecap="round" stroke-linejoin="round"/>
<path d="M15.582 14.8747V13.458C15.5816 12.8303 15.3726 12.2204 14.988 11.7243C14.6034 11.2281 14.0649 10.8737 13.457 10.7168" stroke="#259BA5" stroke-width="1.41667" stroke-linecap="round" stroke-linejoin="round"/>
<path d="M11.332 2.2168C11.9415 2.37284 12.4817 2.72729 12.8674 3.22427C13.2532 3.72124 13.4626 4.33247 13.4626 4.96159C13.4626 5.59071 13.2532 6.20194 12.8674 6.69891C12.4817 7.19588 11.9415 7.55033 11.332 7.70638" stroke="#259BA5" stroke-width="1.41667" stroke-linecap="round" stroke-linejoin="round"/>
</svg>
