<svg width="24" height="25" viewBox="0 0 24 25" fill="none" xmlns="http://www.w3.org/2000/svg">
<path d="M15.6018 3.22169C13.463 2.39077 11.1035 2.32065 8.91908 3.02311C6.73471 3.72556 4.85835 5.15784 3.60477 7.07969C2.3512 9.00153 1.79667 11.296 2.03422 13.5782C2.27176 15.8604 3.28693 17.9915 4.90942 19.614C6.5319 21.2365 8.66301 22.2517 10.9452 22.4892C13.2274 22.7268 15.5219 22.1723 17.4438 20.9187C19.3656 19.6651 20.7979 17.7887 21.5003 15.6044C22.2028 13.42 22.1327 11.0605 21.3018 8.92169" stroke="#259BA5" stroke-width="2" stroke-linecap="round" stroke-linejoin="round"/>
<path d="M12 14.5215C13.1046 14.5215 14 13.6261 14 12.5215C14 11.4169 13.1046 10.5215 12 10.5215C10.8954 10.5215 10 11.4169 10 12.5215C10 13.6261 10.8954 14.5215 12 14.5215Z" stroke="#259BA5" stroke-width="2" stroke-linecap="round" stroke-linejoin="round"/>
<path d="M13.3984 11.1215L18.9984 5.52148" stroke="#259BA5" stroke-width="2" stroke-linecap="round" stroke-linejoin="round"/>
</svg>
