<svg width="17" height="17" viewBox="0 0 17 17" fill="none" xmlns="http://www.w3.org/2000/svg">
<g clip-path="url(#clip0_574_6009)">
<path d="M7.79167 10.6243H9.20833C9.58406 10.6243 9.94439 10.4751 10.2101 10.2094C10.4757 9.94374 10.625 9.58341 10.625 9.20768C10.625 8.83196 10.4757 8.47162 10.2101 8.20595C9.94439 7.94027 9.58406 7.79102 9.20833 7.79102H7.08333C6.65833 7.79102 6.30417 7.93268 6.09167 8.21602L2.125 12.041" stroke="#259BA5" stroke-width="1.41667" stroke-linecap="round" stroke-linejoin="round"/>
<path d="M4.95703 14.8749L6.09036 13.8833C6.30286 13.5999 6.65703 13.4583 7.08203 13.4583H9.91536C10.6945 13.4583 11.4029 13.1749 11.8987 12.6083L15.157 9.49162C15.4304 9.23331 15.5899 8.87699 15.6005 8.50106C15.6112 8.12513 15.472 7.76037 15.2137 7.48703C14.9554 7.21369 14.5991 7.05416 14.2231 7.04354C13.8472 7.03291 13.4825 7.17206 13.2091 7.43037L10.2341 10.1929" stroke="#259BA5" stroke-width="1.41667" stroke-linecap="round" stroke-linejoin="round"/>
<path d="M1.41797 11.334L5.66797 15.584" stroke="#259BA5" stroke-width="1.41667" stroke-linecap="round" stroke-linejoin="round"/>
<path d="M11.3354 8.42865C12.4699 8.42865 13.3896 7.50896 13.3896 6.37448C13.3896 5.23999 12.4699 4.32031 11.3354 4.32031C10.2009 4.32031 9.28125 5.23999 9.28125 6.37448C9.28125 7.50896 10.2009 8.42865 11.3354 8.42865Z" stroke="#259BA5" stroke-width="1.41667" stroke-linecap="round" stroke-linejoin="round"/>
<path d="M4.25 5.66602C5.4236 5.66602 6.375 4.71462 6.375 3.54102C6.375 2.36741 5.4236 1.41602 4.25 1.41602C3.07639 1.41602 2.125 2.36741 2.125 3.54102C2.125 4.71462 3.07639 5.66602 4.25 5.66602Z" stroke="#259BA5" stroke-width="1.41667" stroke-linecap="round" stroke-linejoin="round"/>
</g>
<defs>
<clipPath id="clip0_574_6009">
<rect width="17" height="17" fill="white"/>
</clipPath>
</defs>
</svg>
