<svg width="33" height="32" viewBox="0 0 33 32" fill="none" xmlns="http://www.w3.org/2000/svg">
<path fill-rule="evenodd" clip-rule="evenodd" d="M6.9974 1.33301C5.58291 1.33301 4.22635 1.89491 3.22616 2.89511C2.22597 3.8953 1.66406 5.25185 1.66406 6.66634V25.333C1.66406 26.7475 2.22597 28.104 3.22616 29.1042C4.22635 30.1044 5.58291 30.6663 6.9974 30.6663H25.6641C27.0786 30.6663 28.4351 30.1044 29.4353 29.1042C30.4355 28.104 30.9974 26.7475 30.9974 25.333V6.66634C30.9974 5.25185 30.4355 3.8953 29.4353 2.89511C28.4351 1.89491 27.0786 1.33301 25.6641 1.33301H6.9974ZM20.8374 8.98634L17.8574 8.32367L17.1654 12.4703C19.2321 12.597 21.1214 13.1903 22.5854 14.117C22.8567 13.8564 23.1812 13.6576 23.5366 13.5342C23.8921 13.4108 24.27 13.3657 24.6444 13.4022C25.0189 13.4386 25.381 13.5556 25.706 13.7451C26.031 13.9347 26.3111 14.1923 26.5271 14.5003C26.7432 14.8083 26.89 15.1594 26.9576 15.5295C27.0252 15.8996 27.0119 16.2799 26.9186 16.6444C26.8253 17.0089 26.6543 17.3489 26.4173 17.641C26.1803 17.9332 25.8828 18.1706 25.5454 18.337C25.5654 18.5037 25.5747 18.673 25.5747 18.8437C25.5747 20.7263 24.4307 22.3437 22.7587 23.4583C21.0827 24.5757 18.8081 25.245 16.3307 25.245C13.8534 25.245 11.5787 24.5757 9.90273 23.4583C8.23073 22.3437 7.08673 20.7263 7.08673 18.845C7.08673 18.673 7.09606 18.5037 7.1134 18.337C6.77814 18.1693 6.48301 17.9313 6.24812 17.6391C6.01323 17.347 5.84411 17.0076 5.75231 16.6442C5.6605 16.2807 5.64816 15.9017 5.71614 15.5331C5.78411 15.1644 5.93079 14.8148 6.14618 14.508C6.36158 14.2012 6.64061 13.9445 6.96424 13.7553C7.28788 13.5661 7.6485 13.449 8.02152 13.4119C8.39454 13.3748 8.77118 13.4186 9.12574 13.5403C9.4803 13.6619 9.80444 13.8587 10.0761 14.117C11.5947 13.1557 13.5694 12.553 15.7254 12.457L16.5774 7.35034C16.5932 7.25497 16.6283 7.16382 16.6805 7.08245C16.7327 7.00108 16.8009 6.93119 16.881 6.87704C16.9611 6.8229 17.0514 6.78563 17.1464 6.76752C17.2413 6.7494 17.339 6.75082 17.4334 6.77167L21.2521 7.62101C21.5508 7.21623 21.983 6.93006 22.4723 6.81304C22.9616 6.69601 23.4765 6.75568 23.9261 6.98149C24.3756 7.2073 24.7309 7.58472 24.9292 8.04709C25.1275 8.50946 25.1559 9.02703 25.0096 9.50836C24.8633 9.9897 24.5516 10.4038 24.1295 10.6776C23.7074 10.9514 23.2022 11.0672 22.703 11.0046C22.2038 10.942 21.7428 10.705 21.4015 10.3354C21.0601 9.96587 20.8603 9.48891 20.8374 8.98634ZM12.5387 18.8437C12.7291 18.8495 12.9188 18.817 13.0964 18.7482C13.274 18.6794 13.436 18.5756 13.5727 18.4429C13.7095 18.3103 13.8182 18.1516 13.8924 17.9762C13.9667 17.8007 14.0049 17.6122 14.0049 17.4217C14.0049 17.2312 13.9667 17.0426 13.8924 16.8672C13.8182 16.6918 13.7095 16.533 13.5727 16.4004C13.436 16.2678 13.274 16.164 13.0964 16.0951C12.9188 16.0263 12.7291 15.9938 12.5387 15.9997C12.1691 16.011 11.8185 16.1658 11.561 16.4312C11.3036 16.6967 11.1596 17.0519 11.1596 17.4217C11.1596 17.7914 11.3036 18.1467 11.561 18.4121C11.8185 18.6776 12.1691 18.8324 12.5387 18.8437ZM20.1227 18.8437C20.3131 18.8495 20.5028 18.817 20.6804 18.7482C20.858 18.6794 21.02 18.5756 21.1567 18.4429C21.2935 18.3103 21.4022 18.1516 21.4764 17.9762C21.5507 17.8007 21.5889 17.6122 21.5889 17.4217C21.5889 17.2312 21.5507 17.0426 21.4764 16.8672C21.4022 16.6918 21.2935 16.533 21.1567 16.4004C21.02 16.2678 20.858 16.164 20.6804 16.0951C20.5028 16.0263 20.3131 15.9938 20.1227 15.9997C19.7531 16.011 19.4025 16.1658 19.145 16.4312C18.8876 16.6967 18.7436 17.0519 18.7436 17.4217C18.7436 17.7914 18.8876 18.1467 19.145 18.4121C19.4025 18.6776 19.7531 18.8324 20.1227 18.8437ZM13.6027 20.8197C13.5509 20.742 13.4843 20.6753 13.4067 20.6234C13.3291 20.5715 13.242 20.5354 13.1505 20.5171C13.0589 20.4989 12.9646 20.4988 12.8731 20.517C12.7815 20.5352 12.6944 20.5712 12.6167 20.623C12.5391 20.6748 12.4724 20.7415 12.4205 20.8191C12.3686 20.8967 12.3325 20.9837 12.3142 21.0753C12.2959 21.1668 12.2959 21.2611 12.314 21.3527C12.3322 21.4443 12.3682 21.5314 12.4201 21.609C12.7107 22.0437 13.2507 22.3463 13.8601 22.5423C14.5001 22.749 15.3267 22.8743 16.3307 22.8743C17.3347 22.8743 18.1614 22.749 18.8001 22.5437C19.4107 22.3463 19.9507 22.0437 20.2401 21.609C20.3447 21.4522 20.3828 21.2602 20.3459 21.0753C20.3091 20.8904 20.2002 20.7277 20.0434 20.623C19.8866 20.5183 19.6946 20.4803 19.5097 20.5171C19.3248 20.554 19.1621 20.6628 19.0574 20.8197C19.0307 20.8597 18.8601 21.0303 18.3641 21.189C17.8974 21.3397 17.2241 21.4517 16.3307 21.4517C15.4374 21.4517 14.7641 21.3397 14.2961 21.189C13.8027 21.029 13.6294 20.8597 13.6027 20.8197Z" fill="#68A4A9"/>
</svg>
