<svg width="32" height="32" viewBox="0 0 32 32" fill="none" xmlns="http://www.w3.org/2000/svg">
<g clip-path="url(#clip0_1244_8493)">
<path d="M16.0003 0.320313C12.8991 0.320313 9.8675 1.23991 7.28897 2.96285C4.71044 4.68578 2.7007 7.13471 1.5139 9.99978C0.327103 12.865 0.0165701 16.0176 0.621637 19.0592C1.2267 22.1008 2.72004 24.8947 4.91284 27.0878C7.10577 29.2806 9.89964 30.774 12.9412 31.3791C15.9828 31.984 19.1356 31.6735 22.0008 30.4867C24.8659 29.2999 27.3148 27.2902 29.0378 24.7116C30.7607 22.1331 31.6803 19.1015 31.6803 16.0003C31.6804 13.9412 31.275 11.902 30.4871 9.99965C29.6991 8.09711 28.5442 6.36858 27.088 4.91245C25.632 3.45645 23.9035 2.30151 22.0011 1.51351C20.0986 0.725646 18.0595 0.320179 16.0003 0.320313ZM20.9858 24.0794C20.9271 24.2256 20.8378 24.3578 20.7239 24.4668C20.6099 24.5758 20.474 24.6592 20.3252 24.7115C20.1764 24.7636 20.0183 24.7835 19.8611 24.7695C19.7042 24.7555 19.5519 24.7082 19.4146 24.6306L15.1582 21.323L12.426 23.8434C12.3627 23.8903 12.2886 23.9204 12.2104 23.9311C12.1323 23.9418 12.0528 23.9327 11.9792 23.9044L12.503 19.2186L12.5196 19.2319L12.5304 19.1395C12.5304 19.1395 20.1902 12.1658 20.5022 11.8686C20.8179 11.5723 20.7138 11.5079 20.7138 11.5079C20.7318 11.1464 20.1468 11.5079 20.1468 11.5079L9.99804 18.0371L5.7715 16.5976C5.7715 16.5976 5.1223 16.3648 5.06124 15.8528C4.99684 15.3448 5.7927 15.0688 5.7927 15.0688L22.5968 8.39311C22.5968 8.39311 23.9783 7.77765 23.9783 8.79685L20.9858 24.0794Z" fill="#68A4A9"/>
</g>
<defs>
<clipPath id="clip0_1244_8493">
<rect width="32" height="32" fill="white"/>
</clipPath>
</defs>
</svg>
