<svg width="33" height="32" viewBox="0 0 33 32" fill="none" xmlns="http://www.w3.org/2000/svg">
<path fill-rule="evenodd" clip-rule="evenodd" d="M7.33333 1.33301C4.38781 1.33301 2 3.72082 2 6.66634V25.333C2 28.2785 4.38781 30.6663 7.33333 30.6663H26C28.9455 30.6663 31.3333 28.2785 31.3333 25.333V6.66634C31.3333 3.72082 28.9455 1.33301 26 1.33301H7.33333ZM6.88761 5.99967C6.6538 6.0867 6.45652 6.25979 6.34137 6.49074C6.17219 6.83007 6.20948 7.23593 6.43768 7.53875L13.9233 17.4725L6.03537 25.9311C6.01469 25.9534 5.99523 25.9762 5.97695 25.9997H8.70616L15.1455 19.0943L20.0965 25.6647C20.2127 25.8187 20.3689 25.9338 20.5451 25.9997H26.4415C26.6745 25.9125 26.8713 25.7397 26.9861 25.5091C27.1553 25.1698 27.1181 24.7639 26.8899 24.4611L19.4043 14.5274L27.3564 5.99967H24.6217L18.182 12.9054L13.2309 6.33511C13.1145 6.18068 12.9577 6.06542 12.7809 5.99967H6.88761ZM21.3939 24.063L9.242 7.93693H11.9337L24.0856 24.063H21.3939Z" fill="#68A4A9"/>
</svg>
